<svg xmlns="http://www.w3.org/2000/svg" width="241.21" height="281.64" viewBox="0 0 241.21 281.64">
  <title>Asset 1</title>
  <g id="Layer_2" data-name="Layer 2">
    <g id="Layer_1-2" data-name="Layer 1">
      <g>
        <path d="M125.68,0a40.53,40.53,0,0,0,5.58.8,69.7,69.7,0,0,1,40.29,21,70.29,70.29,0,0,1,19.3,37.67c4.42,26.14-2.62,48.89-21.62,67.54A67.42,67.42,0,0,1,131,145.75a70.83,70.83,0,0,1-70.37-33A74.45,74.45,0,0,1,50.12,83.47c-4.92-36.37,17-70.73,51.27-80.7A66,66,0,0,1,114.74.28c.23,0,.49,0,.59-.28Z" fill="#231f20"/>
        <path d="M87.29,157.91h71.53s85.49,10.76,82.3,106.14c0,0-3.94,19.22-65.1,17.48l-134-.71S-.38,279.14,0,262.58C0,262.58-1.82,164,87.29,157.91Z" fill="#231f20"/>
      </g>
    </g>
  </g>
</svg>
